<mxfile host="app.diagrams.net" agent="Mozilla/5.0 (Windows NT 10.0; Win64; x64) AppleWebKit/537.36 (KHTML, like Gecko) Chrome/130.0.0.0 Safari/537.36" version="25.0.1">
  <diagram name="Page-1" id="0LObwJhK2hZmWqyadYIK">
    <mxGraphModel dx="1434" dy="738" grid="1" gridSize="10" guides="1" tooltips="1" connect="1" arrows="1" fold="1" page="1" pageScale="1" pageWidth="1600" pageHeight="900" math="0" shadow="0">
      <root>
        <mxCell id="0" />
        <mxCell id="1" parent="0" />
        <mxCell id="i7-ahwc5w5JtNbP7Yspw-11" style="edgeStyle=orthogonalEdgeStyle;rounded=0;orthogonalLoop=1;jettySize=auto;html=1;exitX=0.5;exitY=1;exitDx=0;exitDy=0;entryX=0.5;entryY=0;entryDx=0;entryDy=0;" edge="1" parent="1" source="i7-ahwc5w5JtNbP7Yspw-1" target="i7-ahwc5w5JtNbP7Yspw-2">
          <mxGeometry relative="1" as="geometry" />
        </mxCell>
        <mxCell id="i7-ahwc5w5JtNbP7Yspw-14" style="edgeStyle=orthogonalEdgeStyle;rounded=0;orthogonalLoop=1;jettySize=auto;html=1;exitX=0;exitY=0.5;exitDx=0;exitDy=0;entryX=0;entryY=0.5;entryDx=0;entryDy=0;" edge="1" parent="1" source="i7-ahwc5w5JtNbP7Yspw-1" target="i7-ahwc5w5JtNbP7Yspw-3">
          <mxGeometry relative="1" as="geometry" />
        </mxCell>
        <mxCell id="i7-ahwc5w5JtNbP7Yspw-1" value="PCU (Power Control Unit)" style="rounded=0;whiteSpace=wrap;html=1;fillColor=#fff2cc;strokeColor=#d6b656;" vertex="1" parent="1">
          <mxGeometry x="200" y="120" width="400" height="80" as="geometry" />
        </mxCell>
        <mxCell id="i7-ahwc5w5JtNbP7Yspw-10" style="edgeStyle=orthogonalEdgeStyle;rounded=0;orthogonalLoop=1;jettySize=auto;html=1;exitX=0.25;exitY=1;exitDx=0;exitDy=0;entryX=0.5;entryY=0;entryDx=0;entryDy=0;" edge="1" parent="1" source="i7-ahwc5w5JtNbP7Yspw-2" target="i7-ahwc5w5JtNbP7Yspw-5">
          <mxGeometry relative="1" as="geometry" />
        </mxCell>
        <mxCell id="i7-ahwc5w5JtNbP7Yspw-12" style="edgeStyle=orthogonalEdgeStyle;rounded=0;orthogonalLoop=1;jettySize=auto;html=1;exitX=0.75;exitY=1;exitDx=0;exitDy=0;entryX=0.75;entryY=0;entryDx=0;entryDy=0;" edge="1" parent="1" source="i7-ahwc5w5JtNbP7Yspw-2" target="i7-ahwc5w5JtNbP7Yspw-3">
          <mxGeometry relative="1" as="geometry" />
        </mxCell>
        <mxCell id="i7-ahwc5w5JtNbP7Yspw-2" value="PB (Processor Board)" style="rounded=0;whiteSpace=wrap;html=1;fillColor=#fff2cc;strokeColor=#d6b656;" vertex="1" parent="1">
          <mxGeometry x="200" y="240" width="400" height="80" as="geometry" />
        </mxCell>
        <mxCell id="i7-ahwc5w5JtNbP7Yspw-3" value="On-board peripheries, other on-board modules, and external connectors" style="rounded=0;whiteSpace=wrap;html=1;fillColor=#fff2cc;strokeColor=#d6b656;" vertex="1" parent="1">
          <mxGeometry x="200" y="480" width="400" height="80" as="geometry" />
        </mxCell>
        <mxCell id="i7-ahwc5w5JtNbP7Yspw-13" style="edgeStyle=orthogonalEdgeStyle;rounded=0;orthogonalLoop=1;jettySize=auto;html=1;exitX=0.5;exitY=1;exitDx=0;exitDy=0;entryX=0.25;entryY=0;entryDx=0;entryDy=0;" edge="1" parent="1" source="i7-ahwc5w5JtNbP7Yspw-5" target="i7-ahwc5w5JtNbP7Yspw-3">
          <mxGeometry relative="1" as="geometry" />
        </mxCell>
        <mxCell id="i7-ahwc5w5JtNbP7Yspw-5" value="PSU (Power Switch Unit)" style="rounded=0;whiteSpace=wrap;html=1;fillColor=#f8cecc;strokeColor=#b85450;" vertex="1" parent="1">
          <mxGeometry x="200" y="360" width="200" height="80" as="geometry" />
        </mxCell>
      </root>
    </mxGraphModel>
  </diagram>
</mxfile>
